<svg xmlns="http://www.w3.org/2000/svg" viewBox="0 0 512 512"><path fill="#f0f0f0" d="M0 85.337h512v341.326H0z"/><g fill="#d80027"><path d="M0 85.337h512v42.663H0zM0 170.663h512v42.663H0zM0 256h512v42.663H0zM0 341.337h512v42.663H0z"/></g><path fill="#2e52b2" d="M0 85.337h256v170.663H0z"/><g fill="#f0f0f0"><path d="M99.822 160.624L95.699 173.308h-12.61l10.333 7.39-4.11 12.651 10.51-7.508 10.477 7.508-4.077-12.651 10.195-7.39h-12.476zM103.612 219.28l.764 10.206-8.73-6.218 10.477 7.508-4.11 12.651 3.347-10.029 10.516-7.508h-12.611l-4.123 12.651-4.11-12.684-10.364 7.508 10.364-7.508zM47.577 219.28l.764 10.206-8.73-6.218 10.477 7.508-4.11 12.651 3.347-10.029 10.516-7.508h-12.61l-4.123 12.651-4.11-12.684-10.364 7.508 10.364-7.508zM43.786 160.624L39.662 173.308h-12.61l10.333 7.39-4.11 12.651 10.51-7.508 10.477 7.508-4.077-12.651 10.195-7.39H47.91zM99.822 101.968l-4.123 12.684h-12.61l10.333 7.39-4.11 12.65 10.51-7.507 10.477 7.507-4.077-12.65 10.195-7.39h-12.476zM43.786 101.968l-4.123 12.684h-12.61l10.333 7.39-4.11 12.65 10.51-7.507 10.477 7.507-4.077-12.65 10.195-7.39H47.91zM156.5 160.624l-4.123 12.684h-12.61l10.333 7.39-4.11 12.651 10.51-7.508 10.477 7.508-4.077-12.651 10.195-7.39h-12.476zM212.824 160.624l-4.123 12.684h-12.61l10.333 7.39-4.11 12.651 10.51-7.508 10.477 7.508-4.077-12.651 10.195-7.39h-12.476zM212.824 101.968l-4.123 12.684h-12.61l10.333 7.39-4.11 12.65 10.51-7.507 10.477 7.507-4.077-12.65 10.195-7.39h-12.476zM156.5 101.968l-4.123 12.684h-12.61l10.333 7.39-4.11 12.65 10.51-7.507 10.477 7.507-4.077-12.65 10.195-7.39h-12.476zM156.5 219.28l-4.123 12.684h-12.61l10.333 7.39-4.11 12.65 10.51-7.507 10.477 7.507-4.077-12.65 10.195-7.39h-12.476zM212.824 219.28l-4.123 12.684h-12.61l10.333 7.39-4.11 12.65 10.51-7.507 10.477 7.507-4.077-12.65 10.195-7.39h-12.476z"/></g></svg>